<svg width="121" height="120" viewBox="0 0 121 120" fill="none" xmlns="http://www.w3.org/2000/svg">
    <mask id="mask0_3246_11830" style="mask-type:alpha" maskUnits="userSpaceOnUse" x="12" y="12"
        width="97" height="96">
        <path fill-rule="evenodd" clip-rule="evenodd"
            d="M80.7414 107.344C82.2534 107.933 83.9775 107.896 85.5036 107.161L105.268 97.651C107.345 96.6516 108.666 94.5497 108.666 92.2437V27.7568C108.666 25.4508 107.345 23.3489 105.268 22.3495L85.5036 12.8388C83.5008 11.8751 81.1568 12.1111 79.399 13.3891C79.1479 13.5716 78.9087 13.7755 78.6842 14.0001L40.8469 48.5198L24.3657 36.0092C22.8315 34.8447 20.6855 34.9401 19.2606 36.2363L13.9745 41.0447C12.2316 42.6302 12.2296 45.3722 13.9702 46.9603L28.2632 60.0001L13.9702 73.0399C12.2296 74.6279 12.2316 77.37 13.9745 78.9555L19.2606 83.7639C20.6855 85.0601 22.8315 85.1555 24.3657 83.9909L40.8469 71.4804L78.6842 106C79.2828 106.599 79.9856 107.05 80.7414 107.344ZM84.6806 38.207L55.9708 60.0001L84.6806 81.7932V38.207Z"
            fill="white"></path>
    </mask>
    <g mask="url(#mask0_3246_11830)">
        <g filter="url(#filter0_d_3246_11830)">
            <path
                d="M105.269 22.3643L85.4884 12.8405C83.1988 11.7381 80.4626 12.2031 78.6658 13.9999L13.9124 73.0398C12.1707 74.6278 12.1727 77.3699 13.9167 78.9554L19.206 83.7638C20.6318 85.06 22.7791 85.1554 24.3142 83.9908L102.292 24.835C104.908 22.8504 108.666 24.7163 108.666 27.9999V27.7703C108.666 25.4654 107.345 23.3642 105.269 22.3643Z"
                fill="#0065A9"></path>
        </g>
        <g filter="url(#filter1_d_3246_11830)">
            <path
                d="M105.269 97.6357L85.4884 107.16C83.1988 108.262 80.4626 107.797 78.6658 106L13.9124 46.9602C12.1707 45.3722 12.1727 42.6301 13.9167 41.0446L19.206 36.2362C20.6318 34.94 22.7791 34.8446 24.3142 36.0092L102.292 95.1649C104.908 97.1495 108.666 95.2837 108.666 92V92.2297C108.666 94.5346 107.345 96.6358 105.269 97.6357Z"
                fill="#007ACC"></path>
        </g>
        <g filter="url(#filter2_d_3246_11830)">
            <path
                d="M85.4895 107.161C83.1992 108.263 80.463 107.797 78.666 106C80.8802 108.214 84.666 106.646 84.666 103.515V16.4852C84.666 13.354 80.8802 11.7858 78.666 14C80.463 12.2029 83.1992 11.7373 85.4895 12.8387L105.266 22.3494C107.344 23.3488 108.666 25.4507 108.666 27.7567V92.2436C108.666 94.5495 107.344 96.6515 105.266 97.6508L85.4895 107.161Z"
                fill="#1F9CF0"></path>
        </g>
        <g style="mix-blend-mode:overlay" opacity="0.25">
            <path fill-rule="evenodd" clip-rule="evenodd"
                d="M80.6828 107.344C82.1948 107.933 83.919 107.896 85.445 107.161L105.21 97.651C107.287 96.6516 108.607 94.5497 108.607 92.2437V27.7568C108.607 25.4508 107.287 23.3489 105.21 22.3495L85.445 12.8388C83.4422 11.8751 81.0982 12.1111 79.3404 13.3891C79.0893 13.5716 78.8501 13.7755 78.6256 14.0001L40.7883 48.5198L24.3071 36.0092C22.7729 34.8447 20.6269 34.9401 19.202 36.2363L13.9159 41.0447C12.173 42.6302 12.171 45.3722 13.9116 46.9603L28.2047 60.0001L13.9116 73.0399C12.171 74.6279 12.173 77.37 13.9159 78.9555L19.202 83.7639C20.6269 85.0601 22.7729 85.1555 24.3071 83.9909L40.7883 71.4804L78.6256 106C79.2242 106.599 79.927 107.05 80.6828 107.344ZM84.622 38.207L55.9122 60.0001L84.622 81.7932V38.207Z"
                fill="url(#paint0_linear_3246_11830)"></path>
        </g>
    </g>
    <defs>
        <filter id="filter0_d_3246_11830" x="8.60742" y="12.2483" width="104.059" height="80.5558"
            filterUnits="userSpaceOnUse" color-interpolation-filters="sRGB">
            <feFlood flood-opacity="0" result="BackgroundImageFix"></feFlood>
            <feColorMatrix in="SourceAlpha" type="matrix"
                values="0 0 0 0 0 0 0 0 0 0 0 0 0 0 0 0 0 0 127 0" result="hardAlpha"></feColorMatrix>
            <feOffset dy="4"></feOffset>
            <feGaussianBlur stdDeviation="2"></feGaussianBlur>
            <feColorMatrix type="matrix" values="0 0 0 0 0 0 0 0 0 0 0 0 0 0 0 0 0 0 0.25 0"></feColorMatrix>
            <feBlend mode="normal" in2="BackgroundImageFix" result="effect1_dropShadow_3246_11830"></feBlend>
            <feBlend mode="normal" in="SourceGraphic" in2="effect1_dropShadow_3246_11830"
                result="shape"></feBlend>
        </filter>
        <filter id="filter1_d_3246_11830" x="4.60742" y="27.1959" width="112.059" height="88.5558"
            filterUnits="userSpaceOnUse" color-interpolation-filters="sRGB">
            <feFlood flood-opacity="0" result="BackgroundImageFix"></feFlood>
            <feColorMatrix in="SourceAlpha" type="matrix"
                values="0 0 0 0 0 0 0 0 0 0 0 0 0 0 0 0 0 0 127 0" result="hardAlpha"></feColorMatrix>
            <feOffset></feOffset>
            <feGaussianBlur stdDeviation="4"></feGaussianBlur>
            <feColorMatrix type="matrix" values="0 0 0 0 0 0 0 0 0 0 0 0 0 0 0 0 0 0 0.25 0"></feColorMatrix>
            <feBlend mode="overlay" in2="BackgroundImageFix" result="effect1_dropShadow_3246_11830"></feBlend>
            <feBlend mode="normal" in="SourceGraphic" in2="effect1_dropShadow_3246_11830"
                result="shape"></feBlend>
        </filter>
        <filter id="filter2_d_3246_11830" x="70.666" y="4.24744" width="46" height="111.505"
            filterUnits="userSpaceOnUse" color-interpolation-filters="sRGB">
            <feFlood flood-opacity="0" result="BackgroundImageFix"></feFlood>
            <feColorMatrix in="SourceAlpha" type="matrix"
                values="0 0 0 0 0 0 0 0 0 0 0 0 0 0 0 0 0 0 127 0" result="hardAlpha"></feColorMatrix>
            <feOffset></feOffset>
            <feGaussianBlur stdDeviation="4"></feGaussianBlur>
            <feColorMatrix type="matrix" values="0 0 0 0 0 0 0 0 0 0 0 0 0 0 0 0 0 0 0.25 0"></feColorMatrix>
            <feBlend mode="overlay" in2="BackgroundImageFix" result="effect1_dropShadow_3246_11830"></feBlend>
            <feBlend mode="normal" in="SourceGraphic" in2="effect1_dropShadow_3246_11830"
                result="shape"></feBlend>
        </filter>
        <linearGradient id="paint0_linear_3246_11830" x1="60.6074" y1="12.2476" x2="60.6074"
            y2="107.753" gradientUnits="userSpaceOnUse">
            <stop stop-color="white"></stop>
            <stop offset="1" stop-color="white" stop-opacity="0"></stop>
        </linearGradient>
    </defs>
</svg>